<mxfile host="Electron" modified="2023-12-26T09:36:44.194Z" agent="Mozilla/5.0 (Windows NT 10.0; Win64; x64) AppleWebKit/537.36 (KHTML, like Gecko) draw.io/22.1.2 Chrome/114.0.5735.289 Electron/25.9.4 Safari/537.36" etag="dNyj5oir97hOAVZrtC_V" version="22.1.2" type="device">
  <diagram name="Seite-1" id="7E0EtuUDogC0Y01XTuJ_">
    <mxGraphModel dx="2363" dy="1367" grid="1" gridSize="10" guides="1" tooltips="1" connect="1" arrows="1" fold="1" page="1" pageScale="1" pageWidth="1169" pageHeight="1654" math="0" shadow="0">
      <root>
        <mxCell id="0" />
        <mxCell id="1" parent="0" />
        <mxCell id="LUVYgVV79wMqjGqhxNlR-5" style="edgeStyle=orthogonalEdgeStyle;rounded=0;orthogonalLoop=1;jettySize=auto;html=1;exitX=1;exitY=0.5;exitDx=0;exitDy=0;entryX=0;entryY=0.5;entryDx=0;entryDy=0;endArrow=none;endFill=0;" parent="1" source="LUVYgVV79wMqjGqhxNlR-3" target="LUVYgVV79wMqjGqhxNlR-4" edge="1">
          <mxGeometry relative="1" as="geometry" />
        </mxCell>
        <mxCell id="LUVYgVV79wMqjGqhxNlR-3" value="GET" style="rounded=0;whiteSpace=wrap;html=1;" parent="1" vertex="1">
          <mxGeometry x="438.55" y="40" width="80" height="40" as="geometry" />
        </mxCell>
        <mxCell id="OG-l9eAOMnaEc3Jlq5Rf-5" style="edgeStyle=orthogonalEdgeStyle;rounded=0;orthogonalLoop=1;jettySize=auto;html=1;exitX=1;exitY=0.5;exitDx=0;exitDy=0;endArrow=none;endFill=0;" edge="1" parent="1" source="LUVYgVV79wMqjGqhxNlR-4" target="LUVYgVV79wMqjGqhxNlR-6">
          <mxGeometry relative="1" as="geometry" />
        </mxCell>
        <mxCell id="LUVYgVV79wMqjGqhxNlR-4" value="/users" style="rounded=0;whiteSpace=wrap;html=1;" parent="1" vertex="1">
          <mxGeometry x="558.55" y="40" width="200" height="40" as="geometry" />
        </mxCell>
        <mxCell id="LUVYgVV79wMqjGqhxNlR-6" value="OK 200:&amp;nbsp;&lt;br&gt;[&lt;br&gt;&quot;max_mustermann&quot;, &lt;br&gt;&quot;lisa_musterfrau&quot;&lt;br&gt;]" style="rounded=0;whiteSpace=wrap;html=1;fontFamily=Helvetica;fontSize=11;align=left;verticalAlign=top;fillColor=#d5e8d4;strokeColor=#82b366;" parent="1" vertex="1">
          <mxGeometry x="920" y="20" width="200" height="80" as="geometry" />
        </mxCell>
        <mxCell id="LUVYgVV79wMqjGqhxNlR-8" style="edgeStyle=orthogonalEdgeStyle;rounded=0;orthogonalLoop=1;jettySize=auto;html=1;exitX=1;exitY=0.5;exitDx=0;exitDy=0;entryX=0;entryY=0.5;entryDx=0;entryDy=0;endArrow=none;endFill=0;" parent="1" source="LUVYgVV79wMqjGqhxNlR-9" target="LUVYgVV79wMqjGqhxNlR-10" edge="1">
          <mxGeometry relative="1" as="geometry" />
        </mxCell>
        <mxCell id="LUVYgVV79wMqjGqhxNlR-9" value="GET" style="rounded=0;whiteSpace=wrap;html=1;" parent="1" vertex="1">
          <mxGeometry x="440" y="160" width="80" height="40" as="geometry" />
        </mxCell>
        <mxCell id="LUVYgVV79wMqjGqhxNlR-12" style="edgeStyle=orthogonalEdgeStyle;shape=connector;rounded=0;orthogonalLoop=1;jettySize=auto;html=1;entryX=0;entryY=0.5;entryDx=0;entryDy=0;labelBackgroundColor=default;strokeColor=default;align=center;verticalAlign=middle;fontFamily=Helvetica;fontSize=11;fontColor=default;endArrow=none;endFill=0;" parent="1" source="LUVYgVV79wMqjGqhxNlR-10" target="LUVYgVV79wMqjGqhxNlR-11" edge="1">
          <mxGeometry relative="1" as="geometry" />
        </mxCell>
        <mxCell id="OG-l9eAOMnaEc3Jlq5Rf-1" value="user found" style="edgeLabel;html=1;align=center;verticalAlign=middle;resizable=0;points=[];" vertex="1" connectable="0" parent="LUVYgVV79wMqjGqhxNlR-12">
          <mxGeometry x="0.281" y="2" relative="1" as="geometry">
            <mxPoint x="-8" y="2" as="offset" />
          </mxGeometry>
        </mxCell>
        <mxCell id="LUVYgVV79wMqjGqhxNlR-14" style="edgeStyle=orthogonalEdgeStyle;shape=connector;rounded=0;orthogonalLoop=1;jettySize=auto;html=1;entryX=0;entryY=0.5;entryDx=0;entryDy=0;labelBackgroundColor=default;strokeColor=default;align=center;verticalAlign=middle;fontFamily=Helvetica;fontSize=11;fontColor=default;endArrow=none;endFill=0;" parent="1" source="LUVYgVV79wMqjGqhxNlR-10" target="LUVYgVV79wMqjGqhxNlR-13" edge="1">
          <mxGeometry relative="1" as="geometry">
            <Array as="points">
              <mxPoint x="800" y="180" />
              <mxPoint x="800" y="250" />
            </Array>
          </mxGeometry>
        </mxCell>
        <mxCell id="LUVYgVV79wMqjGqhxNlR-218" value="no user" style="edgeLabel;html=1;align=center;verticalAlign=middle;resizable=0;points=[];fontSize=11;fontFamily=Helvetica;fontColor=default;" parent="LUVYgVV79wMqjGqhxNlR-14" vertex="1" connectable="0">
          <mxGeometry x="0.486" y="-1" relative="1" as="geometry">
            <mxPoint x="-7" y="-1" as="offset" />
          </mxGeometry>
        </mxCell>
        <mxCell id="LUVYgVV79wMqjGqhxNlR-10" value="/users/{user_name}" style="rounded=0;whiteSpace=wrap;html=1;" parent="1" vertex="1">
          <mxGeometry x="560" y="160" width="200" height="40" as="geometry" />
        </mxCell>
        <mxCell id="LUVYgVV79wMqjGqhxNlR-11" value="OK 200:&amp;nbsp;&lt;br&gt;{&quot;name&quot;: &quot;Max Mustermann&quot;,&lt;br&gt;&quot;user_name&quot;: &quot;@max_mustermann&quot;,&lt;br&gt;&quot;type&quot;: &quot;student&quot;&lt;br&gt;}" style="rounded=0;whiteSpace=wrap;html=1;fontFamily=Helvetica;fontSize=11;align=left;verticalAlign=top;fillColor=#d5e8d4;strokeColor=#82b366;" parent="1" vertex="1">
          <mxGeometry x="920" y="140" width="200" height="80" as="geometry" />
        </mxCell>
        <mxCell id="LUVYgVV79wMqjGqhxNlR-13" value="NOT FOUND 404&amp;nbsp;" style="rounded=0;whiteSpace=wrap;html=1;fontFamily=Helvetica;fontSize=11;align=left;verticalAlign=middle;fillColor=#f8cecc;strokeColor=#b85450;" parent="1" vertex="1">
          <mxGeometry x="920" y="240" width="200" height="20" as="geometry" />
        </mxCell>
        <mxCell id="LUVYgVV79wMqjGqhxNlR-23" style="edgeStyle=orthogonalEdgeStyle;shape=connector;rounded=0;orthogonalLoop=1;jettySize=auto;html=1;exitX=1;exitY=0.5;exitDx=0;exitDy=0;entryX=0;entryY=0.5;entryDx=0;entryDy=0;labelBackgroundColor=default;strokeColor=default;align=center;verticalAlign=middle;fontFamily=Helvetica;fontSize=11;fontColor=default;endArrow=none;endFill=0;" parent="1" source="LUVYgVV79wMqjGqhxNlR-22" target="LUVYgVV79wMqjGqhxNlR-3" edge="1">
          <mxGeometry relative="1" as="geometry" />
        </mxCell>
        <mxCell id="LUVYgVV79wMqjGqhxNlR-22" value="Get all users in the app" style="rounded=0;whiteSpace=wrap;html=1;fontFamily=Helvetica;fontSize=11;fontColor=default;" parent="1" vertex="1">
          <mxGeometry x="200" y="40" width="200" height="40" as="geometry" />
        </mxCell>
        <mxCell id="LUVYgVV79wMqjGqhxNlR-25" style="edgeStyle=orthogonalEdgeStyle;shape=connector;rounded=0;orthogonalLoop=1;jettySize=auto;html=1;exitX=1;exitY=0.5;exitDx=0;exitDy=0;entryX=0;entryY=0.5;entryDx=0;entryDy=0;labelBackgroundColor=default;strokeColor=default;align=center;verticalAlign=middle;fontFamily=Helvetica;fontSize=11;fontColor=default;endArrow=none;endFill=0;" parent="1" source="LUVYgVV79wMqjGqhxNlR-24" target="LUVYgVV79wMqjGqhxNlR-9" edge="1">
          <mxGeometry relative="1" as="geometry" />
        </mxCell>
        <mxCell id="LUVYgVV79wMqjGqhxNlR-24" value="Get user info" style="rounded=0;whiteSpace=wrap;html=1;fontFamily=Helvetica;fontSize=11;fontColor=default;" parent="1" vertex="1">
          <mxGeometry x="200" y="160" width="200" height="40" as="geometry" />
        </mxCell>
        <mxCell id="LUVYgVV79wMqjGqhxNlR-37" style="edgeStyle=orthogonalEdgeStyle;rounded=0;orthogonalLoop=1;jettySize=auto;html=1;exitX=1;exitY=0.5;exitDx=0;exitDy=0;entryX=0;entryY=0.5;entryDx=0;entryDy=0;endArrow=none;endFill=0;" parent="1" source="LUVYgVV79wMqjGqhxNlR-38" target="LUVYgVV79wMqjGqhxNlR-41" edge="1">
          <mxGeometry relative="1" as="geometry" />
        </mxCell>
        <mxCell id="LUVYgVV79wMqjGqhxNlR-38" value="GET" style="rounded=0;whiteSpace=wrap;html=1;" parent="1" vertex="1">
          <mxGeometry x="440" y="320" width="80" height="40" as="geometry" />
        </mxCell>
        <mxCell id="LUVYgVV79wMqjGqhxNlR-39" style="edgeStyle=orthogonalEdgeStyle;shape=connector;rounded=0;orthogonalLoop=1;jettySize=auto;html=1;exitX=1;exitY=0.5;exitDx=0;exitDy=0;entryX=0;entryY=0.5;entryDx=0;entryDy=0;labelBackgroundColor=default;strokeColor=default;align=center;verticalAlign=middle;fontFamily=Helvetica;fontSize=11;fontColor=default;endArrow=none;endFill=0;" parent="1" source="LUVYgVV79wMqjGqhxNlR-41" target="LUVYgVV79wMqjGqhxNlR-42" edge="1">
          <mxGeometry relative="1" as="geometry" />
        </mxCell>
        <mxCell id="LUVYgVV79wMqjGqhxNlR-41" value="/modules" style="rounded=0;whiteSpace=wrap;html=1;" parent="1" vertex="1">
          <mxGeometry x="560" y="320" width="200" height="40" as="geometry" />
        </mxCell>
        <mxCell id="LUVYgVV79wMqjGqhxNlR-42" value="OK 200:&amp;nbsp;&lt;br&gt;[&lt;br&gt;&lt;span style=&quot;&quot;&gt;&lt;span style=&quot;white-space: pre;&quot;&gt;&amp;nbsp;{...},&lt;br&gt;&lt;/span&gt;&lt;/span&gt;{...}&lt;br&gt;]" style="rounded=0;whiteSpace=wrap;html=1;fontFamily=Helvetica;fontSize=11;align=left;verticalAlign=top;fillColor=#d5e8d4;strokeColor=#82b366;" parent="1" vertex="1">
          <mxGeometry x="920" y="300" width="200" height="80" as="geometry" />
        </mxCell>
        <mxCell id="LUVYgVV79wMqjGqhxNlR-44" style="edgeStyle=orthogonalEdgeStyle;shape=connector;rounded=0;orthogonalLoop=1;jettySize=auto;html=1;exitX=1;exitY=0.5;exitDx=0;exitDy=0;entryX=0;entryY=0.5;entryDx=0;entryDy=0;labelBackgroundColor=default;strokeColor=default;align=center;verticalAlign=middle;fontFamily=Helvetica;fontSize=11;fontColor=default;endArrow=none;endFill=0;" parent="1" source="LUVYgVV79wMqjGqhxNlR-45" target="LUVYgVV79wMqjGqhxNlR-38" edge="1">
          <mxGeometry relative="1" as="geometry" />
        </mxCell>
        <mxCell id="LUVYgVV79wMqjGqhxNlR-45" value="Get all modules" style="rounded=0;whiteSpace=wrap;html=1;fontFamily=Helvetica;fontSize=11;fontColor=default;" parent="1" vertex="1">
          <mxGeometry x="200" y="320" width="200" height="40" as="geometry" />
        </mxCell>
        <mxCell id="LUVYgVV79wMqjGqhxNlR-46" style="edgeStyle=orthogonalEdgeStyle;rounded=0;orthogonalLoop=1;jettySize=auto;html=1;exitX=1;exitY=0.5;exitDx=0;exitDy=0;entryX=0;entryY=0.5;entryDx=0;entryDy=0;endArrow=none;endFill=0;" parent="1" source="LUVYgVV79wMqjGqhxNlR-47" target="LUVYgVV79wMqjGqhxNlR-50" edge="1">
          <mxGeometry relative="1" as="geometry" />
        </mxCell>
        <mxCell id="LUVYgVV79wMqjGqhxNlR-47" value="GET" style="rounded=0;whiteSpace=wrap;html=1;" parent="1" vertex="1">
          <mxGeometry x="440" y="400" width="80" height="40" as="geometry" />
        </mxCell>
        <mxCell id="LUVYgVV79wMqjGqhxNlR-48" style="edgeStyle=orthogonalEdgeStyle;shape=connector;rounded=0;orthogonalLoop=1;jettySize=auto;html=1;exitX=1;exitY=0.5;exitDx=0;exitDy=0;entryX=0;entryY=0.5;entryDx=0;entryDy=0;labelBackgroundColor=default;strokeColor=default;align=center;verticalAlign=middle;fontFamily=Helvetica;fontSize=11;fontColor=default;endArrow=none;endFill=0;" parent="1" source="LUVYgVV79wMqjGqhxNlR-50" target="LUVYgVV79wMqjGqhxNlR-51" edge="1">
          <mxGeometry relative="1" as="geometry" />
        </mxCell>
        <mxCell id="OG-l9eAOMnaEc3Jlq5Rf-6" value="module found" style="edgeLabel;html=1;align=center;verticalAlign=middle;resizable=0;points=[];fontSize=11;fontFamily=Helvetica;fontColor=default;" vertex="1" connectable="0" parent="LUVYgVV79wMqjGqhxNlR-48">
          <mxGeometry x="0.0061" y="-3" relative="1" as="geometry">
            <mxPoint x="13" y="-3" as="offset" />
          </mxGeometry>
        </mxCell>
        <mxCell id="LUVYgVV79wMqjGqhxNlR-49" style="edgeStyle=orthogonalEdgeStyle;shape=connector;rounded=0;orthogonalLoop=1;jettySize=auto;html=1;entryX=0;entryY=0.5;entryDx=0;entryDy=0;labelBackgroundColor=default;strokeColor=default;align=center;verticalAlign=middle;fontFamily=Helvetica;fontSize=11;fontColor=default;endArrow=none;endFill=0;" parent="1" source="LUVYgVV79wMqjGqhxNlR-50" target="LUVYgVV79wMqjGqhxNlR-52" edge="1">
          <mxGeometry relative="1" as="geometry">
            <Array as="points">
              <mxPoint x="800" y="420" />
              <mxPoint x="800" y="470" />
            </Array>
          </mxGeometry>
        </mxCell>
        <mxCell id="LUVYgVV79wMqjGqhxNlR-217" value="no module" style="edgeLabel;html=1;align=center;verticalAlign=middle;resizable=0;points=[];fontSize=11;fontFamily=Helvetica;fontColor=default;" parent="LUVYgVV79wMqjGqhxNlR-49" vertex="1" connectable="0">
          <mxGeometry x="0.7019" y="-2" relative="1" as="geometry">
            <mxPoint x="-35" y="-2" as="offset" />
          </mxGeometry>
        </mxCell>
        <mxCell id="LUVYgVV79wMqjGqhxNlR-50" value="/modules/{module_id}" style="rounded=0;whiteSpace=wrap;html=1;" parent="1" vertex="1">
          <mxGeometry x="558.55" y="400" width="200" height="40" as="geometry" />
        </mxCell>
        <mxCell id="LUVYgVV79wMqjGqhxNlR-51" value="OK 200:&amp;nbsp;&lt;br&gt;{...}" style="rounded=0;whiteSpace=wrap;html=1;fontFamily=Helvetica;fontSize=11;align=left;verticalAlign=top;fillColor=#d5e8d4;strokeColor=#82b366;" parent="1" vertex="1">
          <mxGeometry x="920" y="400" width="200" height="40" as="geometry" />
        </mxCell>
        <mxCell id="LUVYgVV79wMqjGqhxNlR-52" value="NOT FOUND 404&amp;nbsp;" style="rounded=0;whiteSpace=wrap;html=1;fontFamily=Helvetica;fontSize=11;align=left;verticalAlign=middle;fillColor=#f8cecc;strokeColor=#b85450;" parent="1" vertex="1">
          <mxGeometry x="920" y="460" width="200" height="20" as="geometry" />
        </mxCell>
        <mxCell id="LUVYgVV79wMqjGqhxNlR-53" style="edgeStyle=orthogonalEdgeStyle;shape=connector;rounded=0;orthogonalLoop=1;jettySize=auto;html=1;exitX=1;exitY=0.5;exitDx=0;exitDy=0;entryX=0;entryY=0.5;entryDx=0;entryDy=0;labelBackgroundColor=default;strokeColor=default;align=center;verticalAlign=middle;fontFamily=Helvetica;fontSize=11;fontColor=default;endArrow=none;endFill=0;" parent="1" source="LUVYgVV79wMqjGqhxNlR-54" target="LUVYgVV79wMqjGqhxNlR-47" edge="1">
          <mxGeometry relative="1" as="geometry" />
        </mxCell>
        <mxCell id="LUVYgVV79wMqjGqhxNlR-54" value="Get module info" style="rounded=0;whiteSpace=wrap;html=1;fontFamily=Helvetica;fontSize=11;fontColor=default;" parent="1" vertex="1">
          <mxGeometry x="200" y="400" width="200" height="40" as="geometry" />
        </mxCell>
        <mxCell id="LUVYgVV79wMqjGqhxNlR-58" style="edgeStyle=orthogonalEdgeStyle;rounded=0;orthogonalLoop=1;jettySize=auto;html=1;exitX=1;exitY=0.5;exitDx=0;exitDy=0;entryX=0;entryY=0.5;entryDx=0;entryDy=0;endArrow=none;endFill=0;" parent="1" source="LUVYgVV79wMqjGqhxNlR-59" target="LUVYgVV79wMqjGqhxNlR-61" edge="1">
          <mxGeometry relative="1" as="geometry" />
        </mxCell>
        <mxCell id="LUVYgVV79wMqjGqhxNlR-59" value="GET" style="rounded=0;whiteSpace=wrap;html=1;" parent="1" vertex="1">
          <mxGeometry x="440" y="600" width="80" height="40" as="geometry" />
        </mxCell>
        <mxCell id="LUVYgVV79wMqjGqhxNlR-60" style="edgeStyle=orthogonalEdgeStyle;shape=connector;rounded=0;orthogonalLoop=1;jettySize=auto;html=1;exitX=1;exitY=0.5;exitDx=0;exitDy=0;entryX=0;entryY=0.5;entryDx=0;entryDy=0;labelBackgroundColor=default;strokeColor=default;align=center;verticalAlign=middle;fontFamily=Helvetica;fontSize=11;fontColor=default;endArrow=none;endFill=0;" parent="1" source="LUVYgVV79wMqjGqhxNlR-61" target="LUVYgVV79wMqjGqhxNlR-62" edge="1">
          <mxGeometry relative="1" as="geometry" />
        </mxCell>
        <mxCell id="LUVYgVV79wMqjGqhxNlR-215" style="edgeStyle=orthogonalEdgeStyle;shape=connector;rounded=0;orthogonalLoop=1;jettySize=auto;html=1;labelBackgroundColor=default;strokeColor=default;align=center;verticalAlign=middle;fontFamily=Helvetica;fontSize=11;fontColor=default;endArrow=none;endFill=0;" parent="1" source="LUVYgVV79wMqjGqhxNlR-61" target="OG-l9eAOMnaEc3Jlq5Rf-7" edge="1">
          <mxGeometry relative="1" as="geometry">
            <mxPoint x="920" y="720" as="targetPoint" />
            <Array as="points">
              <mxPoint x="800" y="620" />
              <mxPoint x="800" y="680" />
            </Array>
          </mxGeometry>
        </mxCell>
        <mxCell id="LUVYgVV79wMqjGqhxNlR-216" value="no user" style="edgeLabel;html=1;align=center;verticalAlign=middle;resizable=0;points=[];fontSize=11;fontFamily=Helvetica;fontColor=default;" parent="LUVYgVV79wMqjGqhxNlR-215" vertex="1" connectable="0">
          <mxGeometry x="0.4633" y="-1" relative="1" as="geometry">
            <mxPoint x="-1" as="offset" />
          </mxGeometry>
        </mxCell>
        <mxCell id="LUVYgVV79wMqjGqhxNlR-61" value="/courses/{user_name}" style="rounded=0;whiteSpace=wrap;html=1;" parent="1" vertex="1">
          <mxGeometry x="560" y="600" width="200" height="40" as="geometry" />
        </mxCell>
        <mxCell id="LUVYgVV79wMqjGqhxNlR-62" value="OK 200:&amp;nbsp;&lt;br&gt;[&lt;br&gt;&lt;span style=&quot;&quot;&gt;&lt;span style=&quot;white-space: pre;&quot;&gt;&amp;nbsp;{...},&lt;br&gt;&lt;/span&gt;&lt;/span&gt;{...}&lt;br&gt;]" style="rounded=0;whiteSpace=wrap;html=1;fontFamily=Helvetica;fontSize=11;align=left;verticalAlign=top;fillColor=#d5e8d4;strokeColor=#82b366;" parent="1" vertex="1">
          <mxGeometry x="920" y="580" width="200" height="80" as="geometry" />
        </mxCell>
        <mxCell id="LUVYgVV79wMqjGqhxNlR-63" style="edgeStyle=orthogonalEdgeStyle;shape=connector;rounded=0;orthogonalLoop=1;jettySize=auto;html=1;exitX=1;exitY=0.5;exitDx=0;exitDy=0;entryX=0;entryY=0.5;entryDx=0;entryDy=0;labelBackgroundColor=default;strokeColor=default;align=center;verticalAlign=middle;fontFamily=Helvetica;fontSize=11;fontColor=default;endArrow=none;endFill=0;" parent="1" source="LUVYgVV79wMqjGqhxNlR-64" target="LUVYgVV79wMqjGqhxNlR-59" edge="1">
          <mxGeometry relative="1" as="geometry" />
        </mxCell>
        <mxCell id="LUVYgVV79wMqjGqhxNlR-64" value="Get all courses from a user" style="rounded=0;whiteSpace=wrap;html=1;fontFamily=Helvetica;fontSize=11;fontColor=default;" parent="1" vertex="1">
          <mxGeometry x="200" y="600" width="200" height="40" as="geometry" />
        </mxCell>
        <mxCell id="LUVYgVV79wMqjGqhxNlR-65" style="edgeStyle=orthogonalEdgeStyle;rounded=0;orthogonalLoop=1;jettySize=auto;html=1;exitX=1;exitY=0.5;exitDx=0;exitDy=0;entryX=0;entryY=0.5;entryDx=0;entryDy=0;endArrow=none;endFill=0;" parent="1" source="LUVYgVV79wMqjGqhxNlR-66" target="LUVYgVV79wMqjGqhxNlR-70" edge="1">
          <mxGeometry relative="1" as="geometry" />
        </mxCell>
        <mxCell id="LUVYgVV79wMqjGqhxNlR-66" value="POST" style="rounded=0;whiteSpace=wrap;html=1;" parent="1" vertex="1">
          <mxGeometry x="440" y="840" width="80" height="40" as="geometry" />
        </mxCell>
        <mxCell id="LUVYgVV79wMqjGqhxNlR-67" style="edgeStyle=orthogonalEdgeStyle;shape=connector;rounded=0;orthogonalLoop=1;jettySize=auto;html=1;exitX=1;exitY=0.5;exitDx=0;exitDy=0;entryX=0;entryY=0.5;entryDx=0;entryDy=0;labelBackgroundColor=default;strokeColor=default;align=center;verticalAlign=middle;fontFamily=Helvetica;fontSize=11;fontColor=default;endArrow=none;endFill=0;" parent="1" source="LUVYgVV79wMqjGqhxNlR-70" target="LUVYgVV79wMqjGqhxNlR-71" edge="1">
          <mxGeometry relative="1" as="geometry" />
        </mxCell>
        <mxCell id="LUVYgVV79wMqjGqhxNlR-68" style="edgeStyle=orthogonalEdgeStyle;shape=connector;rounded=0;orthogonalLoop=1;jettySize=auto;html=1;labelBackgroundColor=default;strokeColor=default;align=center;verticalAlign=middle;fontFamily=Helvetica;fontSize=11;fontColor=default;endArrow=none;endFill=0;" parent="1" source="LUVYgVV79wMqjGqhxNlR-70" target="LUVYgVV79wMqjGqhxNlR-72" edge="1">
          <mxGeometry relative="1" as="geometry">
            <Array as="points">
              <mxPoint x="799" y="860" />
              <mxPoint x="799" y="930" />
            </Array>
          </mxGeometry>
        </mxCell>
        <mxCell id="LUVYgVV79wMqjGqhxNlR-80" value="no module" style="edgeLabel;html=1;align=center;verticalAlign=middle;resizable=0;points=[];fontSize=11;fontFamily=Helvetica;fontColor=default;" parent="LUVYgVV79wMqjGqhxNlR-68" vertex="1" connectable="0">
          <mxGeometry x="0.6588" y="-3" relative="1" as="geometry">
            <mxPoint x="-21" y="-3" as="offset" />
          </mxGeometry>
        </mxCell>
        <mxCell id="LUVYgVV79wMqjGqhxNlR-69" style="edgeStyle=orthogonalEdgeStyle;shape=connector;rounded=0;orthogonalLoop=1;jettySize=auto;html=1;exitX=0.5;exitY=1;exitDx=0;exitDy=0;labelBackgroundColor=default;strokeColor=default;align=center;verticalAlign=middle;fontFamily=Helvetica;fontSize=11;fontColor=default;endArrow=none;endFill=0;" parent="1" source="LUVYgVV79wMqjGqhxNlR-70" target="LUVYgVV79wMqjGqhxNlR-75" edge="1">
          <mxGeometry relative="1" as="geometry" />
        </mxCell>
        <mxCell id="LUVYgVV79wMqjGqhxNlR-77" style="edgeStyle=orthogonalEdgeStyle;shape=connector;rounded=0;orthogonalLoop=1;jettySize=auto;html=1;labelBackgroundColor=default;strokeColor=default;align=center;verticalAlign=middle;fontFamily=Helvetica;fontSize=11;fontColor=default;endArrow=none;endFill=0;" parent="1" source="LUVYgVV79wMqjGqhxNlR-70" target="LUVYgVV79wMqjGqhxNlR-76" edge="1">
          <mxGeometry relative="1" as="geometry">
            <Array as="points">
              <mxPoint x="799" y="860" />
              <mxPoint x="799" y="900" />
            </Array>
          </mxGeometry>
        </mxCell>
        <mxCell id="LUVYgVV79wMqjGqhxNlR-79" value="no user" style="edgeLabel;html=1;align=center;verticalAlign=middle;resizable=0;points=[];fontSize=11;fontFamily=Helvetica;fontColor=default;" parent="LUVYgVV79wMqjGqhxNlR-77" vertex="1" connectable="0">
          <mxGeometry x="0.5918" y="-3" relative="1" as="geometry">
            <mxPoint x="-19" y="-3" as="offset" />
          </mxGeometry>
        </mxCell>
        <mxCell id="LUVYgVV79wMqjGqhxNlR-82" style="edgeStyle=orthogonalEdgeStyle;shape=connector;rounded=0;orthogonalLoop=1;jettySize=auto;html=1;labelBackgroundColor=default;strokeColor=default;align=center;verticalAlign=middle;fontFamily=Helvetica;fontSize=11;fontColor=default;endArrow=none;endFill=0;" parent="1" source="LUVYgVV79wMqjGqhxNlR-70" target="LUVYgVV79wMqjGqhxNlR-81" edge="1">
          <mxGeometry relative="1" as="geometry">
            <Array as="points">
              <mxPoint x="799" y="860" />
              <mxPoint x="799" y="960" />
            </Array>
          </mxGeometry>
        </mxCell>
        <mxCell id="LUVYgVV79wMqjGqhxNlR-84" value="already subscribed" style="edgeLabel;html=1;align=center;verticalAlign=middle;resizable=0;points=[];fontSize=11;fontFamily=Helvetica;fontColor=default;" parent="LUVYgVV79wMqjGqhxNlR-82" vertex="1" connectable="0">
          <mxGeometry x="0.593" y="1" relative="1" as="geometry">
            <mxPoint x="-7" y="2" as="offset" />
          </mxGeometry>
        </mxCell>
        <mxCell id="LUVYgVV79wMqjGqhxNlR-70" value="/courses/" style="rounded=0;whiteSpace=wrap;html=1;" parent="1" vertex="1">
          <mxGeometry x="559.9999999999999" y="840" width="200" height="40" as="geometry" />
        </mxCell>
        <mxCell id="LUVYgVV79wMqjGqhxNlR-71" value="CREATED 201:&lt;br&gt;{&quot;course-id&quot;: &quot;1234&quot;&amp;nbsp;" style="rounded=0;whiteSpace=wrap;html=1;fontFamily=Helvetica;fontSize=11;align=left;verticalAlign=top;fillColor=#d5e8d4;strokeColor=#82b366;" parent="1" vertex="1">
          <mxGeometry x="920" y="840" width="200" height="40" as="geometry" />
        </mxCell>
        <mxCell id="LUVYgVV79wMqjGqhxNlR-72" value="NOT FOUND 404&amp;nbsp;" style="rounded=0;whiteSpace=wrap;html=1;fontFamily=Helvetica;fontSize=11;align=left;verticalAlign=middle;fillColor=#f8cecc;strokeColor=#b85450;" parent="1" vertex="1">
          <mxGeometry x="920" y="920" width="200" height="20" as="geometry" />
        </mxCell>
        <mxCell id="LUVYgVV79wMqjGqhxNlR-73" style="edgeStyle=orthogonalEdgeStyle;shape=connector;rounded=0;orthogonalLoop=1;jettySize=auto;html=1;exitX=1;exitY=0.5;exitDx=0;exitDy=0;entryX=0;entryY=0.5;entryDx=0;entryDy=0;labelBackgroundColor=default;strokeColor=default;align=center;verticalAlign=middle;fontFamily=Helvetica;fontSize=11;fontColor=default;endArrow=none;endFill=0;" parent="1" source="LUVYgVV79wMqjGqhxNlR-74" target="LUVYgVV79wMqjGqhxNlR-66" edge="1">
          <mxGeometry relative="1" as="geometry" />
        </mxCell>
        <mxCell id="LUVYgVV79wMqjGqhxNlR-74" value="Subscribe to module for a user" style="rounded=0;whiteSpace=wrap;html=1;fontFamily=Helvetica;fontSize=11;fontColor=default;" parent="1" vertex="1">
          <mxGeometry x="200" y="840" width="200" height="40" as="geometry" />
        </mxCell>
        <mxCell id="LUVYgVV79wMqjGqhxNlR-75" value="application/json:&lt;br&gt;{&lt;br&gt;&quot;module-id&quot;. &quot;123&quot;&lt;br&gt;&quot;user-id: &quot;.&quot;&lt;br&gt;}" style="rounded=0;whiteSpace=wrap;html=1;fontFamily=Helvetica;fontSize=11;align=left;verticalAlign=top;fillColor=#dae8fc;strokeColor=#6c8ebf;" parent="1" vertex="1">
          <mxGeometry x="560" y="890" width="200" height="80" as="geometry" />
        </mxCell>
        <mxCell id="LUVYgVV79wMqjGqhxNlR-76" value="UNAUTHORIZED 401" style="rounded=0;whiteSpace=wrap;html=1;fontFamily=Helvetica;fontSize=11;align=left;verticalAlign=middle;fillColor=#f8cecc;strokeColor=#b85450;" parent="1" vertex="1">
          <mxGeometry x="920" y="890" width="200" height="20" as="geometry" />
        </mxCell>
        <mxCell id="LUVYgVV79wMqjGqhxNlR-78" style="edgeStyle=orthogonalEdgeStyle;shape=connector;rounded=0;orthogonalLoop=1;jettySize=auto;html=1;exitX=1;exitY=0.75;exitDx=0;exitDy=0;entryX=1;entryY=0.5;entryDx=0;entryDy=0;labelBackgroundColor=default;strokeColor=default;align=center;verticalAlign=middle;fontFamily=Helvetica;fontSize=11;fontColor=default;endArrow=none;endFill=0;" parent="1" source="LUVYgVV79wMqjGqhxNlR-10" target="LUVYgVV79wMqjGqhxNlR-10" edge="1">
          <mxGeometry relative="1" as="geometry" />
        </mxCell>
        <mxCell id="LUVYgVV79wMqjGqhxNlR-81" value="UNPROCESSABLE ENTITY 422" style="rounded=0;whiteSpace=wrap;html=1;fontFamily=Helvetica;fontSize=11;align=left;verticalAlign=middle;fillColor=#f8cecc;strokeColor=#b85450;" parent="1" vertex="1">
          <mxGeometry x="920" y="950" width="200" height="20" as="geometry" />
        </mxCell>
        <mxCell id="LUVYgVV79wMqjGqhxNlR-85" style="edgeStyle=orthogonalEdgeStyle;rounded=0;orthogonalLoop=1;jettySize=auto;html=1;exitX=1;exitY=0.5;exitDx=0;exitDy=0;entryX=0;entryY=0.5;entryDx=0;entryDy=0;endArrow=none;endFill=0;" parent="1" source="LUVYgVV79wMqjGqhxNlR-86" target="LUVYgVV79wMqjGqhxNlR-95" edge="1">
          <mxGeometry relative="1" as="geometry" />
        </mxCell>
        <mxCell id="LUVYgVV79wMqjGqhxNlR-86" value="DELETE" style="rounded=0;whiteSpace=wrap;html=1;" parent="1" vertex="1">
          <mxGeometry x="440" y="1200" width="80" height="40" as="geometry" />
        </mxCell>
        <mxCell id="LUVYgVV79wMqjGqhxNlR-87" style="edgeStyle=orthogonalEdgeStyle;shape=connector;rounded=0;orthogonalLoop=1;jettySize=auto;html=1;labelBackgroundColor=default;strokeColor=default;align=center;verticalAlign=middle;fontFamily=Helvetica;fontSize=11;fontColor=default;endArrow=none;endFill=0;" parent="1" source="LUVYgVV79wMqjGqhxNlR-95" target="OG-l9eAOMnaEc3Jlq5Rf-13" edge="1">
          <mxGeometry relative="1" as="geometry">
            <mxPoint x="849.7799999999993" y="1220" as="targetPoint" />
          </mxGeometry>
        </mxCell>
        <mxCell id="LUVYgVV79wMqjGqhxNlR-88" style="edgeStyle=orthogonalEdgeStyle;shape=connector;rounded=0;orthogonalLoop=1;jettySize=auto;html=1;labelBackgroundColor=default;strokeColor=default;align=center;verticalAlign=middle;fontFamily=Helvetica;fontSize=11;fontColor=default;endArrow=none;endFill=0;" parent="1" source="LUVYgVV79wMqjGqhxNlR-95" target="LUVYgVV79wMqjGqhxNlR-97" edge="1">
          <mxGeometry relative="1" as="geometry">
            <Array as="points">
              <mxPoint x="800" y="1220" />
              <mxPoint x="800" y="1260" />
            </Array>
          </mxGeometry>
        </mxCell>
        <mxCell id="LUVYgVV79wMqjGqhxNlR-89" value="no course" style="edgeLabel;html=1;align=center;verticalAlign=middle;resizable=0;points=[];fontSize=11;fontFamily=Helvetica;fontColor=default;" parent="LUVYgVV79wMqjGqhxNlR-88" vertex="1" connectable="0">
          <mxGeometry x="0.6588" y="-3" relative="1" as="geometry">
            <mxPoint x="-24" y="-3" as="offset" />
          </mxGeometry>
        </mxCell>
        <mxCell id="LUVYgVV79wMqjGqhxNlR-93" style="edgeStyle=orthogonalEdgeStyle;shape=connector;rounded=0;orthogonalLoop=1;jettySize=auto;html=1;labelBackgroundColor=default;strokeColor=default;align=center;verticalAlign=middle;fontFamily=Helvetica;fontSize=11;fontColor=default;endArrow=none;endFill=0;" parent="1" source="LUVYgVV79wMqjGqhxNlR-95" target="OG-l9eAOMnaEc3Jlq5Rf-14" edge="1">
          <mxGeometry relative="1" as="geometry">
            <Array as="points">
              <mxPoint x="800" y="1220" />
              <mxPoint x="800" y="1300" />
            </Array>
            <mxPoint x="920" y="1315" as="targetPoint" />
          </mxGeometry>
        </mxCell>
        <mxCell id="LUVYgVV79wMqjGqhxNlR-94" value="already deleted" style="edgeLabel;html=1;align=center;verticalAlign=middle;resizable=0;points=[];fontSize=11;fontFamily=Helvetica;fontColor=default;" parent="LUVYgVV79wMqjGqhxNlR-93" vertex="1" connectable="0">
          <mxGeometry x="0.593" y="1" relative="1" as="geometry">
            <mxPoint x="-9" y="1" as="offset" />
          </mxGeometry>
        </mxCell>
        <mxCell id="LUVYgVV79wMqjGqhxNlR-95" value="/courses/{course-id}" style="rounded=0;whiteSpace=wrap;html=1;" parent="1" vertex="1">
          <mxGeometry x="560" y="1200" width="200" height="40" as="geometry" />
        </mxCell>
        <mxCell id="LUVYgVV79wMqjGqhxNlR-97" value="NOT FOUND 404&amp;nbsp;" style="rounded=0;whiteSpace=wrap;html=1;fontFamily=Helvetica;fontSize=11;align=left;verticalAlign=middle;fillColor=#f8cecc;strokeColor=#b85450;" parent="1" vertex="1">
          <mxGeometry x="920" y="1250" width="200" height="20" as="geometry" />
        </mxCell>
        <mxCell id="LUVYgVV79wMqjGqhxNlR-98" style="edgeStyle=orthogonalEdgeStyle;shape=connector;rounded=0;orthogonalLoop=1;jettySize=auto;html=1;exitX=1;exitY=0.5;exitDx=0;exitDy=0;entryX=0;entryY=0.5;entryDx=0;entryDy=0;labelBackgroundColor=default;strokeColor=default;align=center;verticalAlign=middle;fontFamily=Helvetica;fontSize=11;fontColor=default;endArrow=none;endFill=0;" parent="1" source="LUVYgVV79wMqjGqhxNlR-99" target="LUVYgVV79wMqjGqhxNlR-86" edge="1">
          <mxGeometry relative="1" as="geometry" />
        </mxCell>
        <mxCell id="LUVYgVV79wMqjGqhxNlR-99" value="Unsubscribe to course for a user" style="rounded=0;whiteSpace=wrap;html=1;fontFamily=Helvetica;fontSize=11;fontColor=default;" parent="1" vertex="1">
          <mxGeometry x="200" y="1200" width="200" height="40" as="geometry" />
        </mxCell>
        <mxCell id="LUVYgVV79wMqjGqhxNlR-104" style="edgeStyle=orthogonalEdgeStyle;rounded=0;orthogonalLoop=1;jettySize=auto;html=1;exitX=1;exitY=0.5;exitDx=0;exitDy=0;entryX=0;entryY=0.5;entryDx=0;entryDy=0;endArrow=none;endFill=0;" parent="1" source="LUVYgVV79wMqjGqhxNlR-105" target="LUVYgVV79wMqjGqhxNlR-107" edge="1">
          <mxGeometry relative="1" as="geometry" />
        </mxCell>
        <mxCell id="LUVYgVV79wMqjGqhxNlR-105" value="GET" style="rounded=0;whiteSpace=wrap;html=1;" parent="1" vertex="1">
          <mxGeometry x="440" y="720" width="80" height="40" as="geometry" />
        </mxCell>
        <mxCell id="LUVYgVV79wMqjGqhxNlR-106" style="edgeStyle=orthogonalEdgeStyle;shape=connector;rounded=0;orthogonalLoop=1;jettySize=auto;html=1;exitX=1;exitY=0.5;exitDx=0;exitDy=0;entryX=0;entryY=0.5;entryDx=0;entryDy=0;labelBackgroundColor=default;strokeColor=default;align=center;verticalAlign=middle;fontFamily=Helvetica;fontSize=11;fontColor=default;endArrow=none;endFill=0;" parent="1" source="LUVYgVV79wMqjGqhxNlR-107" target="LUVYgVV79wMqjGqhxNlR-108" edge="1">
          <mxGeometry relative="1" as="geometry" />
        </mxCell>
        <mxCell id="OG-l9eAOMnaEc3Jlq5Rf-8" value="course found" style="edgeLabel;html=1;align=center;verticalAlign=middle;resizable=0;points=[];fontSize=11;fontFamily=Helvetica;fontColor=default;" vertex="1" connectable="0" parent="LUVYgVV79wMqjGqhxNlR-106">
          <mxGeometry x="0.0422" relative="1" as="geometry">
            <mxPoint x="17" as="offset" />
          </mxGeometry>
        </mxCell>
        <mxCell id="LUVYgVV79wMqjGqhxNlR-118" style="edgeStyle=orthogonalEdgeStyle;shape=connector;rounded=0;orthogonalLoop=1;jettySize=auto;html=1;exitX=1;exitY=0.5;exitDx=0;exitDy=0;entryX=0;entryY=0.5;entryDx=0;entryDy=0;labelBackgroundColor=default;strokeColor=default;align=center;verticalAlign=middle;fontFamily=Helvetica;fontSize=11;fontColor=default;endArrow=none;endFill=0;" parent="1" source="LUVYgVV79wMqjGqhxNlR-107" target="LUVYgVV79wMqjGqhxNlR-114" edge="1">
          <mxGeometry relative="1" as="geometry">
            <Array as="points">
              <mxPoint x="800" y="740" />
              <mxPoint x="800" y="780" />
            </Array>
          </mxGeometry>
        </mxCell>
        <mxCell id="LUVYgVV79wMqjGqhxNlR-119" value="no course" style="edgeLabel;html=1;align=center;verticalAlign=middle;resizable=0;points=[];fontSize=11;fontFamily=Helvetica;fontColor=default;" parent="LUVYgVV79wMqjGqhxNlR-118" vertex="1" connectable="0">
          <mxGeometry x="0.5869" y="2" relative="1" as="geometry">
            <mxPoint x="-19" y="2" as="offset" />
          </mxGeometry>
        </mxCell>
        <mxCell id="LUVYgVV79wMqjGqhxNlR-107" value="/courses/{course-id}" style="rounded=0;whiteSpace=wrap;html=1;" parent="1" vertex="1">
          <mxGeometry x="560" y="720" width="200" height="40" as="geometry" />
        </mxCell>
        <mxCell id="LUVYgVV79wMqjGqhxNlR-108" value="OK 200:&amp;nbsp;&lt;br&gt;&lt;span style=&quot;&quot;&gt;&lt;span style=&quot;white-space: pre;&quot;&gt;&amp;nbsp;{...}&lt;/span&gt;&lt;/span&gt;" style="rounded=0;whiteSpace=wrap;html=1;fontFamily=Helvetica;fontSize=11;align=left;verticalAlign=top;fillColor=#d5e8d4;strokeColor=#82b366;" parent="1" vertex="1">
          <mxGeometry x="920" y="720" width="200" height="40" as="geometry" />
        </mxCell>
        <mxCell id="LUVYgVV79wMqjGqhxNlR-109" style="edgeStyle=orthogonalEdgeStyle;shape=connector;rounded=0;orthogonalLoop=1;jettySize=auto;html=1;exitX=1;exitY=0.5;exitDx=0;exitDy=0;entryX=0;entryY=0.5;entryDx=0;entryDy=0;labelBackgroundColor=default;strokeColor=default;align=center;verticalAlign=middle;fontFamily=Helvetica;fontSize=11;fontColor=default;endArrow=none;endFill=0;" parent="1" source="LUVYgVV79wMqjGqhxNlR-110" target="LUVYgVV79wMqjGqhxNlR-105" edge="1">
          <mxGeometry relative="1" as="geometry" />
        </mxCell>
        <mxCell id="LUVYgVV79wMqjGqhxNlR-110" value="Get course info for a user" style="rounded=0;whiteSpace=wrap;html=1;fontFamily=Helvetica;fontSize=11;fontColor=default;" parent="1" vertex="1">
          <mxGeometry x="200" y="720" width="200" height="40" as="geometry" />
        </mxCell>
        <mxCell id="LUVYgVV79wMqjGqhxNlR-114" value="NOT FOUND 404&amp;nbsp;" style="rounded=0;whiteSpace=wrap;html=1;fontFamily=Helvetica;fontSize=11;align=left;verticalAlign=middle;fillColor=#f8cecc;strokeColor=#b85450;" parent="1" vertex="1">
          <mxGeometry x="920" y="770" width="200" height="20" as="geometry" />
        </mxCell>
        <mxCell id="LUVYgVV79wMqjGqhxNlR-120" style="edgeStyle=orthogonalEdgeStyle;rounded=0;orthogonalLoop=1;jettySize=auto;html=1;exitX=1;exitY=0.5;exitDx=0;exitDy=0;entryX=0;entryY=0.5;entryDx=0;entryDy=0;endArrow=none;endFill=0;" parent="1" source="LUVYgVV79wMqjGqhxNlR-121" target="LUVYgVV79wMqjGqhxNlR-130" edge="1">
          <mxGeometry relative="1" as="geometry" />
        </mxCell>
        <mxCell id="LUVYgVV79wMqjGqhxNlR-121" value="PUT" style="rounded=0;whiteSpace=wrap;html=1;" parent="1" vertex="1">
          <mxGeometry x="440" y="1040" width="80" height="40" as="geometry" />
        </mxCell>
        <mxCell id="LUVYgVV79wMqjGqhxNlR-122" style="edgeStyle=orthogonalEdgeStyle;shape=connector;rounded=0;orthogonalLoop=1;jettySize=auto;html=1;exitX=1;exitY=0.5;exitDx=0;exitDy=0;entryX=0;entryY=0.5;entryDx=0;entryDy=0;labelBackgroundColor=default;strokeColor=default;align=center;verticalAlign=middle;fontFamily=Helvetica;fontSize=11;fontColor=default;endArrow=none;endFill=0;" parent="1" source="LUVYgVV79wMqjGqhxNlR-130" target="LUVYgVV79wMqjGqhxNlR-131" edge="1">
          <mxGeometry relative="1" as="geometry" />
        </mxCell>
        <mxCell id="LUVYgVV79wMqjGqhxNlR-123" style="edgeStyle=orthogonalEdgeStyle;shape=connector;rounded=0;orthogonalLoop=1;jettySize=auto;html=1;labelBackgroundColor=default;strokeColor=default;align=center;verticalAlign=middle;fontFamily=Helvetica;fontSize=11;fontColor=default;endArrow=none;endFill=0;" parent="1" source="LUVYgVV79wMqjGqhxNlR-130" target="LUVYgVV79wMqjGqhxNlR-132" edge="1">
          <mxGeometry relative="1" as="geometry">
            <Array as="points">
              <mxPoint x="800" y="1060" />
              <mxPoint x="800" y="1100" />
            </Array>
          </mxGeometry>
        </mxCell>
        <mxCell id="LUVYgVV79wMqjGqhxNlR-124" value="no course" style="edgeLabel;html=1;align=center;verticalAlign=middle;resizable=0;points=[];fontSize=11;fontFamily=Helvetica;fontColor=default;" parent="LUVYgVV79wMqjGqhxNlR-123" vertex="1" connectable="0">
          <mxGeometry x="0.6588" y="-3" relative="1" as="geometry">
            <mxPoint x="-25" y="-2" as="offset" />
          </mxGeometry>
        </mxCell>
        <mxCell id="LUVYgVV79wMqjGqhxNlR-130" value="/courses/{course-id}" style="rounded=0;whiteSpace=wrap;html=1;" parent="1" vertex="1">
          <mxGeometry x="558.55" y="1040" width="200" height="40" as="geometry" />
        </mxCell>
        <mxCell id="LUVYgVV79wMqjGqhxNlR-131" value="OK 200:&lt;br&gt;{...}&amp;nbsp;&lt;br style=&quot;border-color: var(--border-color);&quot;&gt;&lt;span style=&quot;border-color: var(--border-color);&quot;&gt;&lt;/span&gt;" style="rounded=0;whiteSpace=wrap;html=1;fontFamily=Helvetica;fontSize=11;align=left;verticalAlign=top;fillColor=#d5e8d4;strokeColor=#82b366;" parent="1" vertex="1">
          <mxGeometry x="920" y="1040" width="200" height="40" as="geometry" />
        </mxCell>
        <mxCell id="LUVYgVV79wMqjGqhxNlR-132" value="NOT FOUND 404&amp;nbsp;" style="rounded=0;whiteSpace=wrap;html=1;fontFamily=Helvetica;fontSize=11;align=left;verticalAlign=middle;fillColor=#f8cecc;strokeColor=#b85450;" parent="1" vertex="1">
          <mxGeometry x="920" y="1090" width="200" height="20" as="geometry" />
        </mxCell>
        <mxCell id="LUVYgVV79wMqjGqhxNlR-133" style="edgeStyle=orthogonalEdgeStyle;shape=connector;rounded=0;orthogonalLoop=1;jettySize=auto;html=1;exitX=1;exitY=0.5;exitDx=0;exitDy=0;entryX=0;entryY=0.5;entryDx=0;entryDy=0;labelBackgroundColor=default;strokeColor=default;align=center;verticalAlign=middle;fontFamily=Helvetica;fontSize=11;fontColor=default;endArrow=none;endFill=0;" parent="1" source="LUVYgVV79wMqjGqhxNlR-134" target="LUVYgVV79wMqjGqhxNlR-121" edge="1">
          <mxGeometry relative="1" as="geometry" />
        </mxCell>
        <mxCell id="LUVYgVV79wMqjGqhxNlR-134" value="Modify course settings for a user" style="rounded=0;whiteSpace=wrap;html=1;fontFamily=Helvetica;fontSize=11;fontColor=default;" parent="1" vertex="1">
          <mxGeometry x="200" y="1040" width="200" height="40" as="geometry" />
        </mxCell>
        <mxCell id="LUVYgVV79wMqjGqhxNlR-138" value="COURSES" style="rounded=0;whiteSpace=wrap;html=1;fontFamily=Helvetica;fontSize=11;fontColor=default;" parent="1" vertex="1">
          <mxGeometry x="40" y="560" width="120" height="800" as="geometry" />
        </mxCell>
        <mxCell id="LUVYgVV79wMqjGqhxNlR-139" value="MODULES" style="rounded=0;whiteSpace=wrap;html=1;fontFamily=Helvetica;fontSize=11;fontColor=default;" parent="1" vertex="1">
          <mxGeometry x="40" y="280" width="120" height="200" as="geometry" />
        </mxCell>
        <mxCell id="LUVYgVV79wMqjGqhxNlR-140" value="USERS" style="rounded=0;whiteSpace=wrap;html=1;fontFamily=Helvetica;fontSize=11;fontColor=default;" parent="1" vertex="1">
          <mxGeometry x="40" y="10" width="120" height="240" as="geometry" />
        </mxCell>
        <mxCell id="LUVYgVV79wMqjGqhxNlR-225" style="edgeStyle=orthogonalEdgeStyle;rounded=0;orthogonalLoop=1;jettySize=auto;html=1;exitX=1;exitY=0.5;exitDx=0;exitDy=0;entryX=0;entryY=0.5;entryDx=0;entryDy=0;endArrow=none;endFill=0;" parent="1" source="LUVYgVV79wMqjGqhxNlR-226" target="LUVYgVV79wMqjGqhxNlR-230" edge="1">
          <mxGeometry relative="1" as="geometry" />
        </mxCell>
        <mxCell id="LUVYgVV79wMqjGqhxNlR-226" value="GET" style="rounded=0;whiteSpace=wrap;html=1;" parent="1" vertex="1">
          <mxGeometry x="440" y="1880" width="80" height="40" as="geometry" />
        </mxCell>
        <mxCell id="LUVYgVV79wMqjGqhxNlR-227" style="edgeStyle=orthogonalEdgeStyle;shape=connector;rounded=0;orthogonalLoop=1;jettySize=auto;html=1;exitX=1;exitY=0.5;exitDx=0;exitDy=0;labelBackgroundColor=default;strokeColor=default;align=center;verticalAlign=middle;fontFamily=Helvetica;fontSize=11;fontColor=default;endArrow=none;endFill=0;" parent="1" source="LUVYgVV79wMqjGqhxNlR-230" target="OG-l9eAOMnaEc3Jlq5Rf-15" edge="1">
          <mxGeometry relative="1" as="geometry">
            <mxPoint x="910" y="1925" as="targetPoint" />
          </mxGeometry>
        </mxCell>
        <mxCell id="LUVYgVV79wMqjGqhxNlR-228" style="edgeStyle=orthogonalEdgeStyle;shape=connector;rounded=0;orthogonalLoop=1;jettySize=auto;html=1;labelBackgroundColor=default;strokeColor=default;align=center;verticalAlign=middle;fontFamily=Helvetica;fontSize=11;fontColor=default;endArrow=none;endFill=0;" parent="1" source="LUVYgVV79wMqjGqhxNlR-230" target="LUVYgVV79wMqjGqhxNlR-282" edge="1">
          <mxGeometry relative="1" as="geometry">
            <Array as="points">
              <mxPoint x="800" y="1900" />
              <mxPoint x="800" y="1960" />
            </Array>
          </mxGeometry>
        </mxCell>
        <mxCell id="LUVYgVV79wMqjGqhxNlR-229" value="no user" style="edgeLabel;html=1;align=center;verticalAlign=middle;resizable=0;points=[];fontSize=11;fontFamily=Helvetica;fontColor=default;" parent="LUVYgVV79wMqjGqhxNlR-228" vertex="1" connectable="0">
          <mxGeometry x="0.1638" y="-2" relative="1" as="geometry">
            <mxPoint x="36" y="-2" as="offset" />
          </mxGeometry>
        </mxCell>
        <mxCell id="LUVYgVV79wMqjGqhxNlR-230" value="/tasks/user/{user_name}" style="rounded=0;whiteSpace=wrap;html=1;" parent="1" vertex="1">
          <mxGeometry x="560" y="1880" width="200" height="40" as="geometry" />
        </mxCell>
        <mxCell id="LUVYgVV79wMqjGqhxNlR-232" style="edgeStyle=orthogonalEdgeStyle;shape=connector;rounded=0;orthogonalLoop=1;jettySize=auto;html=1;exitX=1;exitY=0.5;exitDx=0;exitDy=0;entryX=0;entryY=0.5;entryDx=0;entryDy=0;labelBackgroundColor=default;strokeColor=default;align=center;verticalAlign=middle;fontFamily=Helvetica;fontSize=11;fontColor=default;endArrow=none;endFill=0;" parent="1" source="LUVYgVV79wMqjGqhxNlR-233" target="LUVYgVV79wMqjGqhxNlR-226" edge="1">
          <mxGeometry relative="1" as="geometry" />
        </mxCell>
        <mxCell id="LUVYgVV79wMqjGqhxNlR-233" value="Get all user created tasks for a user" style="rounded=0;whiteSpace=wrap;html=1;fontFamily=Helvetica;fontSize=11;fontColor=default;" parent="1" vertex="1">
          <mxGeometry x="200" y="1880" width="200" height="40" as="geometry" />
        </mxCell>
        <mxCell id="LUVYgVV79wMqjGqhxNlR-234" style="edgeStyle=orthogonalEdgeStyle;rounded=0;orthogonalLoop=1;jettySize=auto;html=1;exitX=1;exitY=0.5;exitDx=0;exitDy=0;entryX=0;entryY=0.5;entryDx=0;entryDy=0;endArrow=none;endFill=0;" parent="1" source="LUVYgVV79wMqjGqhxNlR-235" target="LUVYgVV79wMqjGqhxNlR-240" edge="1">
          <mxGeometry relative="1" as="geometry" />
        </mxCell>
        <mxCell id="LUVYgVV79wMqjGqhxNlR-235" value="POST" style="rounded=0;whiteSpace=wrap;html=1;" parent="1" vertex="1">
          <mxGeometry x="438.55" y="2400" width="80" height="40" as="geometry" />
        </mxCell>
        <mxCell id="LUVYgVV79wMqjGqhxNlR-236" style="edgeStyle=orthogonalEdgeStyle;shape=connector;rounded=0;orthogonalLoop=1;jettySize=auto;html=1;labelBackgroundColor=default;strokeColor=default;align=center;verticalAlign=middle;fontFamily=Helvetica;fontSize=11;fontColor=default;endArrow=none;endFill=0;" parent="1" source="LUVYgVV79wMqjGqhxNlR-240" target="OG-l9eAOMnaEc3Jlq5Rf-18" edge="1">
          <mxGeometry relative="1" as="geometry">
            <mxPoint x="920" y="2420" as="targetPoint" />
          </mxGeometry>
        </mxCell>
        <mxCell id="LUVYgVV79wMqjGqhxNlR-237" style="edgeStyle=orthogonalEdgeStyle;shape=connector;rounded=0;orthogonalLoop=1;jettySize=auto;html=1;labelBackgroundColor=default;strokeColor=default;align=center;verticalAlign=middle;fontFamily=Helvetica;fontSize=11;fontColor=default;endArrow=none;endFill=0;" parent="1" source="LUVYgVV79wMqjGqhxNlR-240" target="LUVYgVV79wMqjGqhxNlR-241" edge="1">
          <mxGeometry relative="1" as="geometry">
            <Array as="points">
              <mxPoint x="800" y="2420" />
              <mxPoint x="800" y="2460" />
            </Array>
          </mxGeometry>
        </mxCell>
        <mxCell id="LUVYgVV79wMqjGqhxNlR-238" value="no course" style="edgeLabel;html=1;align=center;verticalAlign=middle;resizable=0;points=[];fontSize=11;fontFamily=Helvetica;fontColor=default;" parent="LUVYgVV79wMqjGqhxNlR-237" vertex="1" connectable="0">
          <mxGeometry x="0.6588" y="-3" relative="1" as="geometry">
            <mxPoint x="-26" y="-3" as="offset" />
          </mxGeometry>
        </mxCell>
        <mxCell id="LUVYgVV79wMqjGqhxNlR-239" style="edgeStyle=orthogonalEdgeStyle;shape=connector;rounded=0;orthogonalLoop=1;jettySize=auto;html=1;labelBackgroundColor=default;strokeColor=default;align=center;verticalAlign=middle;fontFamily=Helvetica;fontSize=11;fontColor=default;endArrow=none;endFill=0;" parent="1" source="LUVYgVV79wMqjGqhxNlR-240" edge="1" target="OG-l9eAOMnaEc3Jlq5Rf-19">
          <mxGeometry relative="1" as="geometry">
            <mxPoint x="503.5785714285715" y="2485" as="targetPoint" />
          </mxGeometry>
        </mxCell>
        <mxCell id="LUVYgVV79wMqjGqhxNlR-240" value="/tasks/course/{course_id}" style="rounded=0;whiteSpace=wrap;html=1;" parent="1" vertex="1">
          <mxGeometry x="560" y="2400" width="200" height="40" as="geometry" />
        </mxCell>
        <mxCell id="LUVYgVV79wMqjGqhxNlR-241" value="NOT FOUND 404&amp;nbsp;" style="rounded=0;whiteSpace=wrap;html=1;fontFamily=Helvetica;fontSize=11;align=left;verticalAlign=middle;fillColor=#f8cecc;strokeColor=#b85450;" parent="1" vertex="1">
          <mxGeometry x="920" y="2450" width="200" height="20" as="geometry" />
        </mxCell>
        <mxCell id="LUVYgVV79wMqjGqhxNlR-242" style="edgeStyle=orthogonalEdgeStyle;shape=connector;rounded=0;orthogonalLoop=1;jettySize=auto;html=1;exitX=1;exitY=0.5;exitDx=0;exitDy=0;entryX=0;entryY=0.5;entryDx=0;entryDy=0;labelBackgroundColor=default;strokeColor=default;align=center;verticalAlign=middle;fontFamily=Helvetica;fontSize=11;fontColor=default;endArrow=none;endFill=0;" parent="1" source="LUVYgVV79wMqjGqhxNlR-243" target="LUVYgVV79wMqjGqhxNlR-235" edge="1">
          <mxGeometry relative="1" as="geometry" />
        </mxCell>
        <mxCell id="LUVYgVV79wMqjGqhxNlR-243" value="Create a task for a course" style="rounded=0;whiteSpace=wrap;html=1;fontFamily=Helvetica;fontSize=11;fontColor=default;" parent="1" vertex="1">
          <mxGeometry x="200" y="2400" width="200" height="40" as="geometry" />
        </mxCell>
        <mxCell id="LUVYgVV79wMqjGqhxNlR-244" style="edgeStyle=orthogonalEdgeStyle;rounded=0;orthogonalLoop=1;jettySize=auto;html=1;exitX=1;exitY=0.5;exitDx=0;exitDy=0;entryX=0;entryY=0.5;entryDx=0;entryDy=0;endArrow=none;endFill=0;" parent="1" source="LUVYgVV79wMqjGqhxNlR-245" target="LUVYgVV79wMqjGqhxNlR-251" edge="1">
          <mxGeometry relative="1" as="geometry" />
        </mxCell>
        <mxCell id="LUVYgVV79wMqjGqhxNlR-245" value="DELETE" style="rounded=0;whiteSpace=wrap;html=1;" parent="1" vertex="1">
          <mxGeometry x="440" y="2800" width="80" height="40" as="geometry" />
        </mxCell>
        <mxCell id="LUVYgVV79wMqjGqhxNlR-246" style="edgeStyle=orthogonalEdgeStyle;shape=connector;rounded=0;orthogonalLoop=1;jettySize=auto;html=1;exitX=1;exitY=0.5;exitDx=0;exitDy=0;entryX=0;entryY=0.5;entryDx=0;entryDy=0;labelBackgroundColor=default;strokeColor=default;align=center;verticalAlign=middle;fontFamily=Helvetica;fontSize=11;fontColor=default;endArrow=none;endFill=0;" parent="1" source="LUVYgVV79wMqjGqhxNlR-251" target="LUVYgVV79wMqjGqhxNlR-252" edge="1">
          <mxGeometry relative="1" as="geometry" />
        </mxCell>
        <mxCell id="LUVYgVV79wMqjGqhxNlR-247" style="edgeStyle=orthogonalEdgeStyle;shape=connector;rounded=0;orthogonalLoop=1;jettySize=auto;html=1;labelBackgroundColor=default;strokeColor=default;align=center;verticalAlign=middle;fontFamily=Helvetica;fontSize=11;fontColor=default;endArrow=none;endFill=0;" parent="1" source="LUVYgVV79wMqjGqhxNlR-251" target="LUVYgVV79wMqjGqhxNlR-253" edge="1">
          <mxGeometry relative="1" as="geometry">
            <Array as="points">
              <mxPoint x="800" y="2820" />
              <mxPoint x="800" y="2860" />
            </Array>
            <mxPoint x="770" y="2860" as="sourcePoint" />
            <mxPoint x="910" y="2859.969696969697" as="targetPoint" />
          </mxGeometry>
        </mxCell>
        <mxCell id="LUVYgVV79wMqjGqhxNlR-248" value="no task" style="edgeLabel;html=1;align=center;verticalAlign=middle;resizable=0;points=[];fontSize=11;fontFamily=Helvetica;fontColor=default;" parent="LUVYgVV79wMqjGqhxNlR-247" vertex="1" connectable="0">
          <mxGeometry x="0.6588" y="-3" relative="1" as="geometry">
            <mxPoint x="-26" y="-3" as="offset" />
          </mxGeometry>
        </mxCell>
        <mxCell id="LUVYgVV79wMqjGqhxNlR-249" style="edgeStyle=orthogonalEdgeStyle;shape=connector;rounded=0;orthogonalLoop=1;jettySize=auto;html=1;labelBackgroundColor=default;strokeColor=default;align=center;verticalAlign=middle;fontFamily=Helvetica;fontSize=11;fontColor=default;endArrow=none;endFill=0;" parent="1" source="LUVYgVV79wMqjGqhxNlR-251" target="LUVYgVV79wMqjGqhxNlR-256" edge="1">
          <mxGeometry relative="1" as="geometry">
            <Array as="points">
              <mxPoint x="800" y="2820" />
              <mxPoint x="800" y="2900" />
            </Array>
            <mxPoint x="728.55" y="2918.5" as="targetPoint" />
          </mxGeometry>
        </mxCell>
        <mxCell id="LUVYgVV79wMqjGqhxNlR-250" value="already deleted" style="edgeLabel;html=1;align=center;verticalAlign=middle;resizable=0;points=[];fontSize=11;fontFamily=Helvetica;fontColor=default;" parent="LUVYgVV79wMqjGqhxNlR-249" vertex="1" connectable="0">
          <mxGeometry x="0.593" y="1" relative="1" as="geometry">
            <mxPoint x="-11" y="1" as="offset" />
          </mxGeometry>
        </mxCell>
        <mxCell id="LUVYgVV79wMqjGqhxNlR-251" value="/tasks/course/{task-id}" style="rounded=0;whiteSpace=wrap;html=1;" parent="1" vertex="1">
          <mxGeometry x="560" y="2800" width="200" height="40" as="geometry" />
        </mxCell>
        <mxCell id="LUVYgVV79wMqjGqhxNlR-252" value="OK 200:&amp;nbsp;" style="rounded=0;whiteSpace=wrap;html=1;fontFamily=Helvetica;fontSize=11;align=left;verticalAlign=top;fillColor=#d5e8d4;strokeColor=#82b366;" parent="1" vertex="1">
          <mxGeometry x="920" y="2800" width="200" height="40" as="geometry" />
        </mxCell>
        <mxCell id="LUVYgVV79wMqjGqhxNlR-253" value="NOT FOUND 404&amp;nbsp;" style="rounded=0;whiteSpace=wrap;html=1;fontFamily=Helvetica;fontSize=11;align=left;verticalAlign=middle;fillColor=#f8cecc;strokeColor=#b85450;" parent="1" vertex="1">
          <mxGeometry x="920" y="2850" width="200" height="20" as="geometry" />
        </mxCell>
        <mxCell id="LUVYgVV79wMqjGqhxNlR-254" style="edgeStyle=orthogonalEdgeStyle;shape=connector;rounded=0;orthogonalLoop=1;jettySize=auto;html=1;exitX=1;exitY=0.5;exitDx=0;exitDy=0;entryX=0;entryY=0.5;entryDx=0;entryDy=0;labelBackgroundColor=default;strokeColor=default;align=center;verticalAlign=middle;fontFamily=Helvetica;fontSize=11;fontColor=default;endArrow=none;endFill=0;" parent="1" source="LUVYgVV79wMqjGqhxNlR-255" target="LUVYgVV79wMqjGqhxNlR-245" edge="1">
          <mxGeometry relative="1" as="geometry" />
        </mxCell>
        <mxCell id="LUVYgVV79wMqjGqhxNlR-255" value="Delete task" style="rounded=0;whiteSpace=wrap;html=1;fontFamily=Helvetica;fontSize=11;fontColor=default;" parent="1" vertex="1">
          <mxGeometry x="200" y="2800" width="200" height="40" as="geometry" />
        </mxCell>
        <mxCell id="LUVYgVV79wMqjGqhxNlR-256" value="OK 200:&amp;nbsp;" style="rounded=0;whiteSpace=wrap;html=1;fontFamily=Helvetica;fontSize=11;align=left;verticalAlign=top;fillColor=#d5e8d4;strokeColor=#82b366;" parent="1" vertex="1">
          <mxGeometry x="920" y="2880" width="200" height="40" as="geometry" />
        </mxCell>
        <mxCell id="LUVYgVV79wMqjGqhxNlR-257" style="edgeStyle=orthogonalEdgeStyle;rounded=0;orthogonalLoop=1;jettySize=auto;html=1;exitX=1;exitY=0.5;exitDx=0;exitDy=0;entryX=0;entryY=0.5;entryDx=0;entryDy=0;endArrow=none;endFill=0;" parent="1" source="LUVYgVV79wMqjGqhxNlR-258" target="LUVYgVV79wMqjGqhxNlR-262" edge="1">
          <mxGeometry relative="1" as="geometry" />
        </mxCell>
        <mxCell id="LUVYgVV79wMqjGqhxNlR-258" value="GET" style="rounded=0;whiteSpace=wrap;html=1;" parent="1" vertex="1">
          <mxGeometry x="438.55" y="2040" width="80" height="40" as="geometry" />
        </mxCell>
        <mxCell id="LUVYgVV79wMqjGqhxNlR-259" style="edgeStyle=orthogonalEdgeStyle;shape=connector;rounded=0;orthogonalLoop=1;jettySize=auto;html=1;labelBackgroundColor=default;strokeColor=default;align=center;verticalAlign=middle;fontFamily=Helvetica;fontSize=11;fontColor=default;endArrow=none;endFill=0;" parent="1" target="LUVYgVV79wMqjGqhxNlR-263" edge="1" source="LUVYgVV79wMqjGqhxNlR-262">
          <mxGeometry relative="1" as="geometry">
            <mxPoint x="770" y="2074.9999999999995" as="sourcePoint" />
          </mxGeometry>
        </mxCell>
        <mxCell id="LUVYgVV79wMqjGqhxNlR-260" style="edgeStyle=orthogonalEdgeStyle;shape=connector;rounded=0;orthogonalLoop=1;jettySize=auto;html=1;labelBackgroundColor=default;strokeColor=default;align=center;verticalAlign=middle;fontFamily=Helvetica;fontSize=11;fontColor=default;endArrow=none;endFill=0;" parent="1" source="LUVYgVV79wMqjGqhxNlR-262" target="LUVYgVV79wMqjGqhxNlR-266" edge="1">
          <mxGeometry relative="1" as="geometry">
            <mxPoint x="770" y="2074.9999999999995" as="sourcePoint" />
            <Array as="points">
              <mxPoint x="800" y="2060" />
              <mxPoint x="800" y="2100" />
            </Array>
          </mxGeometry>
        </mxCell>
        <mxCell id="LUVYgVV79wMqjGqhxNlR-261" value="no course" style="edgeLabel;html=1;align=center;verticalAlign=middle;resizable=0;points=[];fontSize=11;fontFamily=Helvetica;fontColor=default;" parent="LUVYgVV79wMqjGqhxNlR-260" vertex="1" connectable="0">
          <mxGeometry x="0.5869" y="2" relative="1" as="geometry">
            <mxPoint x="-19" y="2" as="offset" />
          </mxGeometry>
        </mxCell>
        <mxCell id="LUVYgVV79wMqjGqhxNlR-262" value="/tasks/course/{course-id}" style="rounded=0;whiteSpace=wrap;html=1;" parent="1" vertex="1">
          <mxGeometry x="560" y="2040" width="200" height="40" as="geometry" />
        </mxCell>
        <mxCell id="LUVYgVV79wMqjGqhxNlR-263" value="OK 200:&amp;nbsp;&lt;br&gt;&lt;span style=&quot;&quot;&gt;&lt;span style=&quot;white-space: pre;&quot;&gt;&amp;nbsp;{...}&lt;br&gt;&lt;/span&gt;&lt;/span&gt;&lt;br&gt;" style="rounded=0;whiteSpace=wrap;html=1;fontFamily=Helvetica;fontSize=11;align=left;verticalAlign=top;fillColor=#d5e8d4;strokeColor=#82b366;" parent="1" vertex="1">
          <mxGeometry x="920" y="2040" width="200" height="40" as="geometry" />
        </mxCell>
        <mxCell id="LUVYgVV79wMqjGqhxNlR-264" style="edgeStyle=orthogonalEdgeStyle;shape=connector;rounded=0;orthogonalLoop=1;jettySize=auto;html=1;exitX=1;exitY=0.5;exitDx=0;exitDy=0;entryX=0;entryY=0.5;entryDx=0;entryDy=0;labelBackgroundColor=default;strokeColor=default;align=center;verticalAlign=middle;fontFamily=Helvetica;fontSize=11;fontColor=default;endArrow=none;endFill=0;" parent="1" source="LUVYgVV79wMqjGqhxNlR-265" target="LUVYgVV79wMqjGqhxNlR-258" edge="1">
          <mxGeometry relative="1" as="geometry" />
        </mxCell>
        <mxCell id="LUVYgVV79wMqjGqhxNlR-265" value="Get all tasks for a course" style="rounded=0;whiteSpace=wrap;html=1;fontFamily=Helvetica;fontSize=11;fontColor=default;" parent="1" vertex="1">
          <mxGeometry x="200" y="2040" width="200" height="40" as="geometry" />
        </mxCell>
        <mxCell id="LUVYgVV79wMqjGqhxNlR-266" value="NOT FOUND 404&amp;nbsp;" style="rounded=0;whiteSpace=wrap;html=1;fontFamily=Helvetica;fontSize=11;align=left;verticalAlign=middle;fillColor=#f8cecc;strokeColor=#b85450;" parent="1" vertex="1">
          <mxGeometry x="920" y="2090" width="200" height="20" as="geometry" />
        </mxCell>
        <mxCell id="LUVYgVV79wMqjGqhxNlR-267" style="edgeStyle=orthogonalEdgeStyle;rounded=0;orthogonalLoop=1;jettySize=auto;html=1;exitX=1;exitY=0.5;exitDx=0;exitDy=0;entryX=0;entryY=0.5;entryDx=0;entryDy=0;endArrow=none;endFill=0;" parent="1" source="LUVYgVV79wMqjGqhxNlR-268" target="LUVYgVV79wMqjGqhxNlR-273" edge="1">
          <mxGeometry relative="1" as="geometry" />
        </mxCell>
        <mxCell id="LUVYgVV79wMqjGqhxNlR-268" value="PUT" style="rounded=0;whiteSpace=wrap;html=1;" parent="1" vertex="1">
          <mxGeometry x="440" y="2600" width="80" height="40" as="geometry" />
        </mxCell>
        <mxCell id="LUVYgVV79wMqjGqhxNlR-269" style="edgeStyle=orthogonalEdgeStyle;shape=connector;rounded=0;orthogonalLoop=1;jettySize=auto;html=1;exitX=1;exitY=0.5;exitDx=0;exitDy=0;entryX=0;entryY=0.5;entryDx=0;entryDy=0;labelBackgroundColor=default;strokeColor=default;align=center;verticalAlign=middle;fontFamily=Helvetica;fontSize=11;fontColor=default;endArrow=none;endFill=0;" parent="1" source="LUVYgVV79wMqjGqhxNlR-273" target="LUVYgVV79wMqjGqhxNlR-274" edge="1">
          <mxGeometry relative="1" as="geometry" />
        </mxCell>
        <mxCell id="LUVYgVV79wMqjGqhxNlR-270" style="edgeStyle=orthogonalEdgeStyle;shape=connector;rounded=0;orthogonalLoop=1;jettySize=auto;html=1;labelBackgroundColor=default;strokeColor=default;align=center;verticalAlign=middle;fontFamily=Helvetica;fontSize=11;fontColor=default;endArrow=none;endFill=0;" parent="1" source="LUVYgVV79wMqjGqhxNlR-273" target="LUVYgVV79wMqjGqhxNlR-275" edge="1">
          <mxGeometry relative="1" as="geometry">
            <Array as="points">
              <mxPoint x="800" y="2620" />
              <mxPoint x="800" y="2660" />
            </Array>
          </mxGeometry>
        </mxCell>
        <mxCell id="LUVYgVV79wMqjGqhxNlR-271" value="no task" style="edgeLabel;html=1;align=center;verticalAlign=middle;resizable=0;points=[];fontSize=11;fontFamily=Helvetica;fontColor=default;" parent="LUVYgVV79wMqjGqhxNlR-270" vertex="1" connectable="0">
          <mxGeometry x="0.6588" y="-3" relative="1" as="geometry">
            <mxPoint x="-26" y="-3" as="offset" />
          </mxGeometry>
        </mxCell>
        <mxCell id="OG-l9eAOMnaEc3Jlq5Rf-21" style="edgeStyle=orthogonalEdgeStyle;shape=connector;rounded=0;orthogonalLoop=1;jettySize=auto;html=1;labelBackgroundColor=default;strokeColor=default;align=center;verticalAlign=middle;fontFamily=Helvetica;fontSize=11;fontColor=default;endArrow=none;endFill=0;" edge="1" parent="1" source="LUVYgVV79wMqjGqhxNlR-273" target="OG-l9eAOMnaEc3Jlq5Rf-20">
          <mxGeometry relative="1" as="geometry" />
        </mxCell>
        <mxCell id="LUVYgVV79wMqjGqhxNlR-273" value="/tasks/course/{task-id}" style="rounded=0;whiteSpace=wrap;html=1;" parent="1" vertex="1">
          <mxGeometry x="558.55" y="2600" width="200" height="40" as="geometry" />
        </mxCell>
        <mxCell id="LUVYgVV79wMqjGqhxNlR-274" value="OK 200:&amp;nbsp;" style="rounded=0;whiteSpace=wrap;html=1;fontFamily=Helvetica;fontSize=11;align=left;verticalAlign=top;fillColor=#d5e8d4;strokeColor=#82b366;" parent="1" vertex="1">
          <mxGeometry x="920" y="2600" width="200" height="40" as="geometry" />
        </mxCell>
        <mxCell id="LUVYgVV79wMqjGqhxNlR-275" value="NOT FOUND 404&amp;nbsp;" style="rounded=0;whiteSpace=wrap;html=1;fontFamily=Helvetica;fontSize=11;align=left;verticalAlign=middle;fillColor=#f8cecc;strokeColor=#b85450;" parent="1" vertex="1">
          <mxGeometry x="920" y="2650" width="200" height="20" as="geometry" />
        </mxCell>
        <mxCell id="LUVYgVV79wMqjGqhxNlR-276" style="edgeStyle=orthogonalEdgeStyle;shape=connector;rounded=0;orthogonalLoop=1;jettySize=auto;html=1;exitX=1;exitY=0.5;exitDx=0;exitDy=0;entryX=0;entryY=0.5;entryDx=0;entryDy=0;labelBackgroundColor=default;strokeColor=default;align=center;verticalAlign=middle;fontFamily=Helvetica;fontSize=11;fontColor=default;endArrow=none;endFill=0;" parent="1" source="LUVYgVV79wMqjGqhxNlR-277" target="LUVYgVV79wMqjGqhxNlR-268" edge="1">
          <mxGeometry relative="1" as="geometry" />
        </mxCell>
        <mxCell id="LUVYgVV79wMqjGqhxNlR-277" value="Modify task" style="rounded=0;whiteSpace=wrap;html=1;fontFamily=Helvetica;fontSize=11;fontColor=default;" parent="1" vertex="1">
          <mxGeometry x="200" y="2600" width="200" height="40" as="geometry" />
        </mxCell>
        <mxCell id="LUVYgVV79wMqjGqhxNlR-279" value="TASKS" style="rounded=0;whiteSpace=wrap;html=1;fontFamily=Helvetica;fontSize=11;fontColor=default;" parent="1" vertex="1">
          <mxGeometry x="40" y="1680" width="120" height="1280" as="geometry" />
        </mxCell>
        <mxCell id="LUVYgVV79wMqjGqhxNlR-282" value="NOT FOUND 404&amp;nbsp;" style="rounded=0;whiteSpace=wrap;html=1;fontFamily=Helvetica;fontSize=11;align=left;verticalAlign=middle;fillColor=#f8cecc;strokeColor=#b85450;" parent="1" vertex="1">
          <mxGeometry x="920" y="1950" width="200" height="20" as="geometry" />
        </mxCell>
        <mxCell id="LUVYgVV79wMqjGqhxNlR-284" style="edgeStyle=orthogonalEdgeStyle;rounded=0;orthogonalLoop=1;jettySize=auto;html=1;exitX=1;exitY=0.5;exitDx=0;exitDy=0;entryX=0;entryY=0.5;entryDx=0;entryDy=0;endArrow=none;endFill=0;" parent="1" source="LUVYgVV79wMqjGqhxNlR-285" target="LUVYgVV79wMqjGqhxNlR-290" edge="1">
          <mxGeometry relative="1" as="geometry" />
        </mxCell>
        <mxCell id="LUVYgVV79wMqjGqhxNlR-285" value="POST" style="rounded=0;whiteSpace=wrap;html=1;" parent="1" vertex="1">
          <mxGeometry x="440" y="2200" width="80" height="40" as="geometry" />
        </mxCell>
        <mxCell id="LUVYgVV79wMqjGqhxNlR-286" style="edgeStyle=orthogonalEdgeStyle;shape=connector;rounded=0;orthogonalLoop=1;jettySize=auto;html=1;labelBackgroundColor=default;strokeColor=default;align=center;verticalAlign=middle;fontFamily=Helvetica;fontSize=11;fontColor=default;endArrow=none;endFill=0;" parent="1" source="LUVYgVV79wMqjGqhxNlR-290" target="LUVYgVV79wMqjGqhxNlR-295" edge="1">
          <mxGeometry relative="1" as="geometry">
            <mxPoint x="729.78" y="2235" as="targetPoint" />
          </mxGeometry>
        </mxCell>
        <mxCell id="LUVYgVV79wMqjGqhxNlR-287" style="edgeStyle=orthogonalEdgeStyle;shape=connector;rounded=0;orthogonalLoop=1;jettySize=auto;html=1;labelBackgroundColor=default;strokeColor=default;align=center;verticalAlign=middle;fontFamily=Helvetica;fontSize=11;fontColor=default;endArrow=none;endFill=0;" parent="1" source="LUVYgVV79wMqjGqhxNlR-290" target="LUVYgVV79wMqjGqhxNlR-291" edge="1">
          <mxGeometry relative="1" as="geometry">
            <Array as="points">
              <mxPoint x="800" y="2220" />
              <mxPoint x="800" y="2270" />
            </Array>
          </mxGeometry>
        </mxCell>
        <mxCell id="LUVYgVV79wMqjGqhxNlR-288" value="no user" style="edgeLabel;html=1;align=center;verticalAlign=middle;resizable=0;points=[];fontSize=11;fontFamily=Helvetica;fontColor=default;" parent="LUVYgVV79wMqjGqhxNlR-287" vertex="1" connectable="0">
          <mxGeometry x="0.6588" y="-3" relative="1" as="geometry">
            <mxPoint x="-25" y="-2" as="offset" />
          </mxGeometry>
        </mxCell>
        <mxCell id="OG-l9eAOMnaEc3Jlq5Rf-17" style="edgeStyle=orthogonalEdgeStyle;shape=connector;rounded=0;orthogonalLoop=1;jettySize=auto;html=1;labelBackgroundColor=default;strokeColor=default;align=center;verticalAlign=middle;fontFamily=Helvetica;fontSize=11;fontColor=default;endArrow=none;endFill=0;" edge="1" parent="1" source="LUVYgVV79wMqjGqhxNlR-290" target="OG-l9eAOMnaEc3Jlq5Rf-16">
          <mxGeometry relative="1" as="geometry">
            <Array as="points" />
          </mxGeometry>
        </mxCell>
        <mxCell id="LUVYgVV79wMqjGqhxNlR-290" value="/tasks/user/{user_name}" style="rounded=0;whiteSpace=wrap;html=1;" parent="1" vertex="1">
          <mxGeometry x="560" y="2200" width="200" height="40" as="geometry" />
        </mxCell>
        <mxCell id="LUVYgVV79wMqjGqhxNlR-291" value="NOT FOUND 404&amp;nbsp;" style="rounded=0;whiteSpace=wrap;html=1;fontFamily=Helvetica;fontSize=11;align=left;verticalAlign=middle;fillColor=#f8cecc;strokeColor=#b85450;" parent="1" vertex="1">
          <mxGeometry x="920" y="2260" width="200" height="20" as="geometry" />
        </mxCell>
        <mxCell id="LUVYgVV79wMqjGqhxNlR-292" style="edgeStyle=orthogonalEdgeStyle;shape=connector;rounded=0;orthogonalLoop=1;jettySize=auto;html=1;exitX=1;exitY=0.5;exitDx=0;exitDy=0;entryX=0;entryY=0.5;entryDx=0;entryDy=0;labelBackgroundColor=default;strokeColor=default;align=center;verticalAlign=middle;fontFamily=Helvetica;fontSize=11;fontColor=default;endArrow=none;endFill=0;" parent="1" source="LUVYgVV79wMqjGqhxNlR-293" target="LUVYgVV79wMqjGqhxNlR-285" edge="1">
          <mxGeometry relative="1" as="geometry" />
        </mxCell>
        <mxCell id="LUVYgVV79wMqjGqhxNlR-293" value="Create a task for a user" style="rounded=0;whiteSpace=wrap;html=1;fontFamily=Helvetica;fontSize=11;fontColor=default;" parent="1" vertex="1">
          <mxGeometry x="200" y="2200" width="200" height="40" as="geometry" />
        </mxCell>
        <mxCell id="LUVYgVV79wMqjGqhxNlR-295" value="CREATED 201:&lt;br&gt;{&quot;task-id&quot;: 1234}" style="rounded=0;whiteSpace=wrap;html=1;fontFamily=Helvetica;fontSize=11;align=left;verticalAlign=top;fillColor=#d5e8d4;strokeColor=#82b366;" parent="1" vertex="1">
          <mxGeometry x="920" y="2200" width="200" height="40" as="geometry" />
        </mxCell>
        <mxCell id="LUVYgVV79wMqjGqhxNlR-296" style="edgeStyle=orthogonalEdgeStyle;rounded=0;orthogonalLoop=1;jettySize=auto;html=1;exitX=1;exitY=0.5;exitDx=0;exitDy=0;entryX=0;entryY=0.5;entryDx=0;entryDy=0;endArrow=none;endFill=0;" parent="1" source="LUVYgVV79wMqjGqhxNlR-297" target="LUVYgVV79wMqjGqhxNlR-301" edge="1">
          <mxGeometry relative="1" as="geometry" />
        </mxCell>
        <mxCell id="LUVYgVV79wMqjGqhxNlR-297" value="GET" style="rounded=0;whiteSpace=wrap;html=1;" parent="1" vertex="1">
          <mxGeometry x="440" y="1720" width="80" height="40" as="geometry" />
        </mxCell>
        <mxCell id="LUVYgVV79wMqjGqhxNlR-298" style="edgeStyle=orthogonalEdgeStyle;shape=connector;rounded=0;orthogonalLoop=1;jettySize=auto;html=1;labelBackgroundColor=default;strokeColor=default;align=center;verticalAlign=middle;fontFamily=Helvetica;fontSize=11;fontColor=default;endArrow=none;endFill=0;" parent="1" source="LUVYgVV79wMqjGqhxNlR-301" target="LUVYgVV79wMqjGqhxNlR-302" edge="1">
          <mxGeometry relative="1" as="geometry" />
        </mxCell>
        <mxCell id="LUVYgVV79wMqjGqhxNlR-299" style="edgeStyle=orthogonalEdgeStyle;shape=connector;rounded=0;orthogonalLoop=1;jettySize=auto;html=1;entryX=0;entryY=0.5;entryDx=0;entryDy=0;labelBackgroundColor=default;strokeColor=default;align=center;verticalAlign=middle;fontFamily=Helvetica;fontSize=11;fontColor=default;endArrow=none;endFill=0;" parent="1" source="LUVYgVV79wMqjGqhxNlR-301" target="LUVYgVV79wMqjGqhxNlR-305" edge="1">
          <mxGeometry relative="1" as="geometry">
            <Array as="points">
              <mxPoint x="800" y="1740" />
              <mxPoint x="800" y="1800" />
            </Array>
          </mxGeometry>
        </mxCell>
        <mxCell id="LUVYgVV79wMqjGqhxNlR-300" value="no user" style="edgeLabel;html=1;align=center;verticalAlign=middle;resizable=0;points=[];fontSize=11;fontFamily=Helvetica;fontColor=default;" parent="LUVYgVV79wMqjGqhxNlR-299" vertex="1" connectable="0">
          <mxGeometry x="0.1638" y="-2" relative="1" as="geometry">
            <mxPoint x="32" y="-2" as="offset" />
          </mxGeometry>
        </mxCell>
        <mxCell id="LUVYgVV79wMqjGqhxNlR-301" value="/tasks/{user_name}" style="rounded=0;whiteSpace=wrap;html=1;" parent="1" vertex="1">
          <mxGeometry x="560" y="1720" width="200" height="40" as="geometry" />
        </mxCell>
        <mxCell id="LUVYgVV79wMqjGqhxNlR-302" value="OK 200:&amp;nbsp;&lt;br&gt;[&lt;br&gt;&lt;span style=&quot;&quot;&gt;&lt;span style=&quot;white-space: pre;&quot;&gt;&amp;nbsp;{...},&lt;br&gt;&lt;/span&gt;&lt;/span&gt;{...}&lt;br&gt;]" style="rounded=0;whiteSpace=wrap;html=1;fontFamily=Helvetica;fontSize=11;align=left;verticalAlign=top;fillColor=#d5e8d4;strokeColor=#82b366;" parent="1" vertex="1">
          <mxGeometry x="920" y="1700" width="200" height="80" as="geometry" />
        </mxCell>
        <mxCell id="LUVYgVV79wMqjGqhxNlR-303" style="edgeStyle=orthogonalEdgeStyle;shape=connector;rounded=0;orthogonalLoop=1;jettySize=auto;html=1;exitX=1;exitY=0.5;exitDx=0;exitDy=0;entryX=0;entryY=0.5;entryDx=0;entryDy=0;labelBackgroundColor=default;strokeColor=default;align=center;verticalAlign=middle;fontFamily=Helvetica;fontSize=11;fontColor=default;endArrow=none;endFill=0;" parent="1" source="LUVYgVV79wMqjGqhxNlR-304" target="LUVYgVV79wMqjGqhxNlR-297" edge="1">
          <mxGeometry relative="1" as="geometry" />
        </mxCell>
        <mxCell id="LUVYgVV79wMqjGqhxNlR-304" value="Get all tasks for a user" style="rounded=0;whiteSpace=wrap;html=1;fontFamily=Helvetica;fontSize=11;fontColor=default;" parent="1" vertex="1">
          <mxGeometry x="200" y="1720" width="200" height="40" as="geometry" />
        </mxCell>
        <mxCell id="LUVYgVV79wMqjGqhxNlR-305" value="NOT FOUND 404&amp;nbsp;" style="rounded=0;whiteSpace=wrap;html=1;fontFamily=Helvetica;fontSize=11;align=left;verticalAlign=middle;fillColor=#f8cecc;strokeColor=#b85450;" parent="1" vertex="1">
          <mxGeometry x="920" y="1790" width="200" height="20" as="geometry" />
        </mxCell>
        <mxCell id="OG-l9eAOMnaEc3Jlq5Rf-7" value="UNAUTHORIZED 401" style="rounded=0;whiteSpace=wrap;html=1;fontFamily=Helvetica;fontSize=11;align=left;verticalAlign=middle;fillColor=#f8cecc;strokeColor=#b85450;" vertex="1" parent="1">
          <mxGeometry x="920" y="670" width="200" height="20" as="geometry" />
        </mxCell>
        <mxCell id="OG-l9eAOMnaEc3Jlq5Rf-12" style="edgeStyle=orthogonalEdgeStyle;shape=connector;rounded=0;orthogonalLoop=1;jettySize=auto;html=1;exitX=0.5;exitY=0;exitDx=0;exitDy=0;entryX=0.5;entryY=1;entryDx=0;entryDy=0;labelBackgroundColor=default;strokeColor=default;align=center;verticalAlign=middle;fontFamily=Helvetica;fontSize=11;fontColor=default;endArrow=none;endFill=0;" edge="1" parent="1" source="OG-l9eAOMnaEc3Jlq5Rf-10" target="LUVYgVV79wMqjGqhxNlR-130">
          <mxGeometry relative="1" as="geometry" />
        </mxCell>
        <mxCell id="OG-l9eAOMnaEc3Jlq5Rf-10" value="application/json:&lt;br&gt;{&lt;br&gt;...&lt;br&gt;}" style="rounded=0;whiteSpace=wrap;html=1;fontFamily=Helvetica;fontSize=11;align=left;verticalAlign=top;fillColor=#dae8fc;strokeColor=#6c8ebf;" vertex="1" parent="1">
          <mxGeometry x="558.55" y="1090" width="200" height="80" as="geometry" />
        </mxCell>
        <mxCell id="OG-l9eAOMnaEc3Jlq5Rf-13" value="OK 200:&lt;br&gt;{...}&amp;nbsp;&lt;br style=&quot;border-color: var(--border-color);&quot;&gt;&lt;span style=&quot;border-color: var(--border-color);&quot;&gt;&lt;/span&gt;" style="rounded=0;whiteSpace=wrap;html=1;fontFamily=Helvetica;fontSize=11;align=left;verticalAlign=top;fillColor=#d5e8d4;strokeColor=#82b366;" vertex="1" parent="1">
          <mxGeometry x="920" y="1200" width="200" height="40" as="geometry" />
        </mxCell>
        <mxCell id="OG-l9eAOMnaEc3Jlq5Rf-14" value="OK 200:&lt;br&gt;{...}&amp;nbsp;&lt;br style=&quot;border-color: var(--border-color);&quot;&gt;&lt;span style=&quot;border-color: var(--border-color);&quot;&gt;&lt;/span&gt;" style="rounded=0;whiteSpace=wrap;html=1;fontFamily=Helvetica;fontSize=11;align=left;verticalAlign=top;fillColor=#d5e8d4;strokeColor=#82b366;" vertex="1" parent="1">
          <mxGeometry x="920" y="1280" width="200" height="40" as="geometry" />
        </mxCell>
        <mxCell id="OG-l9eAOMnaEc3Jlq5Rf-15" value="OK 200:&amp;nbsp;&lt;br&gt;[&lt;br&gt;&lt;span style=&quot;&quot;&gt;&lt;span style=&quot;white-space: pre;&quot;&gt;&amp;nbsp;{...},&lt;br&gt;&lt;/span&gt;&lt;/span&gt;{...}&lt;br&gt;]" style="rounded=0;whiteSpace=wrap;html=1;fontFamily=Helvetica;fontSize=11;align=left;verticalAlign=top;fillColor=#d5e8d4;strokeColor=#82b366;" vertex="1" parent="1">
          <mxGeometry x="920" y="1860" width="200" height="80" as="geometry" />
        </mxCell>
        <mxCell id="OG-l9eAOMnaEc3Jlq5Rf-16" value="application/json:&lt;br&gt;{&lt;br&gt;...&lt;br&gt;}" style="rounded=0;whiteSpace=wrap;html=1;fontFamily=Helvetica;fontSize=11;align=left;verticalAlign=top;fillColor=#dae8fc;strokeColor=#6c8ebf;" vertex="1" parent="1">
          <mxGeometry x="560" y="2255" width="200" height="80" as="geometry" />
        </mxCell>
        <mxCell id="OG-l9eAOMnaEc3Jlq5Rf-18" value="CREATED 201:&lt;br&gt;{&quot;task-id&quot;: 1234}" style="rounded=0;whiteSpace=wrap;html=1;fontFamily=Helvetica;fontSize=11;align=left;verticalAlign=top;fillColor=#d5e8d4;strokeColor=#82b366;" vertex="1" parent="1">
          <mxGeometry x="920" y="2400" width="200" height="40" as="geometry" />
        </mxCell>
        <mxCell id="OG-l9eAOMnaEc3Jlq5Rf-19" value="application/json:&lt;br&gt;{&lt;br&gt;...&lt;br&gt;}" style="rounded=0;whiteSpace=wrap;html=1;fontFamily=Helvetica;fontSize=11;align=left;verticalAlign=top;fillColor=#dae8fc;strokeColor=#6c8ebf;" vertex="1" parent="1">
          <mxGeometry x="560" y="2450" width="200" height="80" as="geometry" />
        </mxCell>
        <mxCell id="OG-l9eAOMnaEc3Jlq5Rf-20" value="application/json:&lt;br&gt;{&lt;br&gt;...&lt;br&gt;}" style="rounded=0;whiteSpace=wrap;html=1;fontFamily=Helvetica;fontSize=11;align=left;verticalAlign=top;fillColor=#dae8fc;strokeColor=#6c8ebf;" vertex="1" parent="1">
          <mxGeometry x="558.55" y="2650" width="200" height="80" as="geometry" />
        </mxCell>
      </root>
    </mxGraphModel>
  </diagram>
</mxfile>
